<mxfile host="app.diagrams.net" modified="2024-04-24T13:32:09.307Z" agent="Mozilla/5.0 (Macintosh; Intel Mac OS X 10_15_7) AppleWebKit/537.36 (KHTML, like Gecko) Chrome/121.0.0.0 Safari/537.36" etag="9YYfueqRt7N8sE6AQZ_7" version="24.2.8" type="google">
  <diagram name="Page-1" id="42789a77-a242-8287-6e28-9cd8cfd52e62">
    <mxGraphModel grid="0" page="1" gridSize="10" guides="1" tooltips="1" connect="1" arrows="1" fold="1" pageScale="1" pageWidth="1700" pageHeight="1100" background="none" math="0" shadow="0">
      <root>
        <mxCell id="0" />
        <mxCell id="1" parent="0" />
        <mxCell id="DZo3CIwMZmZVj9F6stNv-1" value="Thêm, xóa đầu sách khỏi thư viện cá nhân" style="ellipse;whiteSpace=wrap;html=1;fontFamily=Times New Roman;fontSize=14;" vertex="1" parent="1">
          <mxGeometry x="230" y="10" width="250" height="70" as="geometry" />
        </mxCell>
        <mxCell id="DZo3CIwMZmZVj9F6stNv-2" value="Quản lý tiến độ đọc sách&amp;nbsp;" style="ellipse;whiteSpace=wrap;html=1;fontSize=14;fontFamily=Times New Roman;" vertex="1" parent="1">
          <mxGeometry x="265" y="100" width="180" height="80" as="geometry" />
        </mxCell>
        <mxCell id="DZo3CIwMZmZVj9F6stNv-3" value="&lt;font style=&quot;font-size: 14px;&quot; face=&quot;Times New Roman&quot;&gt;Xem số liệu thống kê: số sách đã đọc, số trang đã đọc, thời gian dọc sách&lt;/font&gt;" style="ellipse;whiteSpace=wrap;html=1;fontSize=14;" vertex="1" parent="1">
          <mxGeometry x="250" y="210" width="210" height="90" as="geometry" />
        </mxCell>
        <mxCell id="DZo3CIwMZmZVj9F6stNv-4" value="Đăng kí tài khoản" style="ellipse;whiteSpace=wrap;html=1;fontFamily=Times New Roman;fontSize=14;" vertex="1" parent="1">
          <mxGeometry x="540" y="230" width="160" height="80" as="geometry" />
        </mxCell>
        <mxCell id="DZo3CIwMZmZVj9F6stNv-40" style="edgeStyle=orthogonalEdgeStyle;rounded=0;orthogonalLoop=1;jettySize=auto;html=1;exitX=0.5;exitY=0;exitDx=0;exitDy=0;strokeColor=#CC0000;" edge="1" parent="1" source="DZo3CIwMZmZVj9F6stNv-6" target="DZo3CIwMZmZVj9F6stNv-5">
          <mxGeometry relative="1" as="geometry" />
        </mxCell>
        <mxCell id="DZo3CIwMZmZVj9F6stNv-6" value="Đổi mật khẩu, sửa thông tin cá nhân" style="ellipse;whiteSpace=wrap;html=1;fontFamily=Times New Roman;fontSize=14;" vertex="1" parent="1">
          <mxGeometry x="560" y="425" width="120" height="80" as="geometry" />
        </mxCell>
        <mxCell id="DZo3CIwMZmZVj9F6stNv-7" value="Tìm kiếm sách nhờ phân loại" style="ellipse;whiteSpace=wrap;html=1;fontFamily=Times New Roman;fontSize=14;" vertex="1" parent="1">
          <mxGeometry x="560" y="520" width="120" height="80" as="geometry" />
        </mxCell>
        <mxCell id="DZo3CIwMZmZVj9F6stNv-8" value="Tìm kiếm sách bằng hình ảnh" style="ellipse;whiteSpace=wrap;html=1;fontFamily=Times New Roman;fontSize=14;" vertex="1" parent="1">
          <mxGeometry x="560" y="620" width="120" height="80" as="geometry" />
        </mxCell>
        <mxCell id="DZo3CIwMZmZVj9F6stNv-10" value="Thêm đầu sách mới" style="ellipse;whiteSpace=wrap;html=1;fontFamily=Times New Roman;fontSize=14;" vertex="1" parent="1">
          <mxGeometry x="349" y="694" width="120" height="80" as="geometry" />
        </mxCell>
        <mxCell id="DZo3CIwMZmZVj9F6stNv-11" value="Phân loại đầu sách, nhập hình ảnh đầu sách" style="ellipse;whiteSpace=wrap;html=1;fontFamily=Times New Roman;fontSize=14;" vertex="1" parent="1">
          <mxGeometry x="644" y="810" width="160" height="80" as="geometry" />
        </mxCell>
        <mxCell id="DZo3CIwMZmZVj9F6stNv-13" value="Sửa thông tin của đầu sách" style="ellipse;whiteSpace=wrap;html=1;fontFamily=Times New Roman;fontSize=14;" vertex="1" parent="1">
          <mxGeometry x="817" y="921" width="120" height="80" as="geometry" />
        </mxCell>
        <mxCell id="DZo3CIwMZmZVj9F6stNv-14" value="Xóa đầu sách khỏi kho lưu trữ" style="ellipse;whiteSpace=wrap;html=1;fontFamily=Times New Roman;fontSize=14;" vertex="1" parent="1">
          <mxGeometry x="330" y="814" width="180" height="80" as="geometry" />
        </mxCell>
        <mxCell id="DZo3CIwMZmZVj9F6stNv-15" value="Quản lí tài khoản" style="ellipse;whiteSpace=wrap;html=1;fontFamily=Times New Roman;fontSize=14;" vertex="1" parent="1">
          <mxGeometry x="369" y="918" width="120" height="80" as="geometry" />
        </mxCell>
        <mxCell id="DZo3CIwMZmZVj9F6stNv-16" value="Độc giả" style="shape=umlActor;verticalLabelPosition=bottom;verticalAlign=top;html=1;outlineConnect=0;fontFamily=Times New Roman;fontSize=14;" vertex="1" parent="1">
          <mxGeometry x="120" y="150" width="30" height="60" as="geometry" />
        </mxCell>
        <mxCell id="DZo3CIwMZmZVj9F6stNv-19" value="" style="endArrow=none;html=1;rounded=0;exitX=0.5;exitY=0.5;exitDx=0;exitDy=0;exitPerimeter=0;entryX=0;entryY=0.5;entryDx=0;entryDy=0;" edge="1" parent="1" source="DZo3CIwMZmZVj9F6stNv-16" target="DZo3CIwMZmZVj9F6stNv-1">
          <mxGeometry width="50" height="50" relative="1" as="geometry">
            <mxPoint x="300" y="170" as="sourcePoint" />
            <mxPoint x="430" y="90" as="targetPoint" />
          </mxGeometry>
        </mxCell>
        <mxCell id="DZo3CIwMZmZVj9F6stNv-20" value="" style="endArrow=none;html=1;rounded=0;exitX=0.5;exitY=0.5;exitDx=0;exitDy=0;exitPerimeter=0;entryX=0;entryY=0.5;entryDx=0;entryDy=0;" edge="1" parent="1" source="DZo3CIwMZmZVj9F6stNv-16" target="DZo3CIwMZmZVj9F6stNv-2">
          <mxGeometry width="50" height="50" relative="1" as="geometry">
            <mxPoint x="160" y="180" as="sourcePoint" />
            <mxPoint x="510" y="180" as="targetPoint" />
          </mxGeometry>
        </mxCell>
        <mxCell id="DZo3CIwMZmZVj9F6stNv-21" value="" style="endArrow=none;html=1;rounded=0;entryX=0;entryY=0.5;entryDx=0;entryDy=0;exitX=0.5;exitY=0.5;exitDx=0;exitDy=0;exitPerimeter=0;" edge="1" parent="1" source="DZo3CIwMZmZVj9F6stNv-16" target="DZo3CIwMZmZVj9F6stNv-3">
          <mxGeometry width="50" height="50" relative="1" as="geometry">
            <mxPoint x="150" y="180" as="sourcePoint" />
            <mxPoint x="290" y="230" as="targetPoint" />
          </mxGeometry>
        </mxCell>
        <mxCell id="DZo3CIwMZmZVj9F6stNv-22" value="Người dùng" style="shape=umlActor;verticalLabelPosition=bottom;verticalAlign=top;html=1;outlineConnect=0;fontFamily=Times New Roman;fontSize=14;" vertex="1" parent="1">
          <mxGeometry x="120" y="470" width="30" height="60" as="geometry" />
        </mxCell>
        <mxCell id="DZo3CIwMZmZVj9F6stNv-23" value="" style="endArrow=none;html=1;rounded=0;entryX=0;entryY=0.5;entryDx=0;entryDy=0;exitX=0.5;exitY=0.5;exitDx=0;exitDy=0;exitPerimeter=0;" edge="1" parent="1" source="DZo3CIwMZmZVj9F6stNv-22" target="DZo3CIwMZmZVj9F6stNv-4">
          <mxGeometry width="50" height="50" relative="1" as="geometry">
            <mxPoint x="300" y="480" as="sourcePoint" />
            <mxPoint x="350" y="430" as="targetPoint" />
          </mxGeometry>
        </mxCell>
        <mxCell id="DZo3CIwMZmZVj9F6stNv-25" value="" style="endArrow=none;html=1;rounded=0;entryX=0;entryY=0.5;entryDx=0;entryDy=0;exitX=0.5;exitY=0.5;exitDx=0;exitDy=0;exitPerimeter=0;" edge="1" parent="1" source="DZo3CIwMZmZVj9F6stNv-22" target="DZo3CIwMZmZVj9F6stNv-5">
          <mxGeometry width="50" height="50" relative="1" as="geometry">
            <mxPoint x="290" y="540" as="sourcePoint" />
            <mxPoint x="321.6868790761139" y="498.807057201052" as="targetPoint" />
          </mxGeometry>
        </mxCell>
        <mxCell id="DZo3CIwMZmZVj9F6stNv-27" value="" style="endArrow=none;html=1;rounded=0;entryX=0;entryY=0.5;entryDx=0;entryDy=0;exitX=0.5;exitY=0.5;exitDx=0;exitDy=0;exitPerimeter=0;" edge="1" parent="1" source="DZo3CIwMZmZVj9F6stNv-22" target="DZo3CIwMZmZVj9F6stNv-6">
          <mxGeometry width="50" height="50" relative="1" as="geometry">
            <mxPoint x="220" y="621.62" as="sourcePoint" />
            <mxPoint x="248.74637624341244" y="589.9989861322462" as="targetPoint" />
          </mxGeometry>
        </mxCell>
        <mxCell id="DZo3CIwMZmZVj9F6stNv-5" value="Đăng nhập" style="ellipse;whiteSpace=wrap;html=1;fontFamily=Times New Roman;fontSize=14;" vertex="1" parent="1">
          <mxGeometry x="560" y="340" width="120" height="50" as="geometry" />
        </mxCell>
        <mxCell id="DZo3CIwMZmZVj9F6stNv-28" value="" style="endArrow=none;html=1;rounded=0;entryX=0;entryY=0.5;entryDx=0;entryDy=0;exitX=0.5;exitY=0.5;exitDx=0;exitDy=0;exitPerimeter=0;" edge="1" parent="1" source="DZo3CIwMZmZVj9F6stNv-22" target="DZo3CIwMZmZVj9F6stNv-7">
          <mxGeometry width="50" height="50" relative="1" as="geometry">
            <mxPoint x="280" y="740" as="sourcePoint" />
            <mxPoint x="330" y="690" as="targetPoint" />
          </mxGeometry>
        </mxCell>
        <mxCell id="DZo3CIwMZmZVj9F6stNv-29" value="" style="endArrow=none;html=1;rounded=0;entryX=0;entryY=0.5;entryDx=0;entryDy=0;exitX=0.5;exitY=0.5;exitDx=0;exitDy=0;exitPerimeter=0;" edge="1" parent="1" source="DZo3CIwMZmZVj9F6stNv-22" target="DZo3CIwMZmZVj9F6stNv-8">
          <mxGeometry width="50" height="50" relative="1" as="geometry">
            <mxPoint x="250" y="810" as="sourcePoint" />
            <mxPoint x="300" y="760" as="targetPoint" />
          </mxGeometry>
        </mxCell>
        <mxCell id="DZo3CIwMZmZVj9F6stNv-30" value="&lt;font style=&quot;font-size: 14px;&quot; face=&quot;Times New Roman&quot;&gt;Thủ thư&lt;/font&gt;" style="shape=umlActor;verticalLabelPosition=bottom;verticalAlign=top;html=1;outlineConnect=0;" vertex="1" parent="1">
          <mxGeometry x="120" y="797" width="30" height="60" as="geometry" />
        </mxCell>
        <mxCell id="DZo3CIwMZmZVj9F6stNv-31" value="" style="endArrow=none;html=1;rounded=0;entryX=0;entryY=0.5;entryDx=0;entryDy=0;exitX=0.5;exitY=0.5;exitDx=0;exitDy=0;exitPerimeter=0;" edge="1" parent="1" source="DZo3CIwMZmZVj9F6stNv-30" target="DZo3CIwMZmZVj9F6stNv-10">
          <mxGeometry width="50" height="50" relative="1" as="geometry">
            <mxPoint x="160" y="827" as="sourcePoint" />
            <mxPoint x="210" y="777" as="targetPoint" />
          </mxGeometry>
        </mxCell>
        <mxCell id="DZo3CIwMZmZVj9F6stNv-32" value="" style="endArrow=none;html=1;rounded=0;entryX=0;entryY=0.5;entryDx=0;entryDy=0;exitX=0.5;exitY=0.5;exitDx=0;exitDy=0;exitPerimeter=0;" edge="1" parent="1" source="DZo3CIwMZmZVj9F6stNv-30" target="DZo3CIwMZmZVj9F6stNv-11">
          <mxGeometry width="50" height="50" relative="1" as="geometry">
            <mxPoint x="330" y="847" as="sourcePoint" />
            <mxPoint x="609.9999999999998" y="827" as="targetPoint" />
            <Array as="points">
              <mxPoint x="419" y="785" />
            </Array>
          </mxGeometry>
        </mxCell>
        <mxCell id="DZo3CIwMZmZVj9F6stNv-33" value="" style="endArrow=none;html=1;rounded=0;entryX=0;entryY=0.5;entryDx=0;entryDy=0;exitX=0.5;exitY=0.5;exitDx=0;exitDy=0;exitPerimeter=0;" edge="1" parent="1" source="DZo3CIwMZmZVj9F6stNv-30" target="DZo3CIwMZmZVj9F6stNv-14">
          <mxGeometry width="50" height="50" relative="1" as="geometry">
            <mxPoint x="210" y="947" as="sourcePoint" />
            <mxPoint x="260" y="897" as="targetPoint" />
          </mxGeometry>
        </mxCell>
        <mxCell id="DZo3CIwMZmZVj9F6stNv-34" value="" style="endArrow=none;html=1;rounded=0;entryX=0;entryY=0.5;entryDx=0;entryDy=0;exitX=0.5;exitY=0.5;exitDx=0;exitDy=0;exitPerimeter=0;" edge="1" parent="1" source="DZo3CIwMZmZVj9F6stNv-30" target="DZo3CIwMZmZVj9F6stNv-15">
          <mxGeometry width="50" height="50" relative="1" as="geometry">
            <mxPoint x="160" y="1017" as="sourcePoint" />
            <mxPoint x="210" y="967" as="targetPoint" />
          </mxGeometry>
        </mxCell>
        <mxCell id="DZo3CIwMZmZVj9F6stNv-37" value="" style="endArrow=classic;html=1;rounded=0;" edge="1" parent="1" source="DZo3CIwMZmZVj9F6stNv-16" target="DZo3CIwMZmZVj9F6stNv-22">
          <mxGeometry width="50" height="50" relative="1" as="geometry">
            <mxPoint x="140" y="350" as="sourcePoint" />
            <mxPoint x="190" y="300" as="targetPoint" />
          </mxGeometry>
        </mxCell>
        <mxCell id="DZo3CIwMZmZVj9F6stNv-38" value="" style="endArrow=classic;html=1;rounded=0;exitX=0.5;exitY=0;exitDx=0;exitDy=0;exitPerimeter=0;" edge="1" parent="1" source="DZo3CIwMZmZVj9F6stNv-30" target="DZo3CIwMZmZVj9F6stNv-22">
          <mxGeometry width="50" height="50" relative="1" as="geometry">
            <mxPoint x="140" y="1000" as="sourcePoint" />
            <mxPoint x="190" y="950" as="targetPoint" />
          </mxGeometry>
        </mxCell>
        <mxCell id="DZo3CIwMZmZVj9F6stNv-43" value="" style="endArrow=classic;html=1;rounded=0;entryX=1;entryY=0;entryDx=0;entryDy=0;exitX=0;exitY=0.5;exitDx=0;exitDy=0;strokeColor=#CC0000;" edge="1" parent="1" source="DZo3CIwMZmZVj9F6stNv-9" target="DZo3CIwMZmZVj9F6stNv-10">
          <mxGeometry width="50" height="50" relative="1" as="geometry">
            <mxPoint x="510" y="1080" as="sourcePoint" />
            <mxPoint x="560" y="1030" as="targetPoint" />
          </mxGeometry>
        </mxCell>
        <mxCell id="DZo3CIwMZmZVj9F6stNv-44" value="" style="endArrow=classic;html=1;rounded=0;entryX=0.323;entryY=0.01;entryDx=0;entryDy=0;entryPerimeter=0;exitX=0.027;exitY=0.69;exitDx=0;exitDy=0;exitPerimeter=0;strokeColor=#CC0000;" edge="1" parent="1" source="DZo3CIwMZmZVj9F6stNv-9" target="DZo3CIwMZmZVj9F6stNv-14">
          <mxGeometry width="50" height="50" relative="1" as="geometry">
            <mxPoint x="510" y="1080" as="sourcePoint" />
            <mxPoint x="560" y="1030" as="targetPoint" />
          </mxGeometry>
        </mxCell>
        <mxCell id="DZo3CIwMZmZVj9F6stNv-45" value="" style="endArrow=classic;html=1;rounded=0;entryX=0.5;entryY=0;entryDx=0;entryDy=0;exitX=1;exitY=0.5;exitDx=0;exitDy=0;strokeColor=#CC0000;" edge="1" parent="1" source="DZo3CIwMZmZVj9F6stNv-9" target="DZo3CIwMZmZVj9F6stNv-13">
          <mxGeometry width="50" height="50" relative="1" as="geometry">
            <mxPoint x="670" y="1070" as="sourcePoint" />
            <mxPoint x="720" y="1020" as="targetPoint" />
          </mxGeometry>
        </mxCell>
        <mxCell id="DZo3CIwMZmZVj9F6stNv-46" value="" style="endArrow=classic;html=1;rounded=0;entryX=0.5;entryY=0;entryDx=0;entryDy=0;strokeColor=#CC0000;" edge="1" parent="1" source="DZo3CIwMZmZVj9F6stNv-9" target="DZo3CIwMZmZVj9F6stNv-11">
          <mxGeometry width="50" height="50" relative="1" as="geometry">
            <mxPoint x="830" y="890" as="sourcePoint" />
            <mxPoint x="930" y="890" as="targetPoint" />
          </mxGeometry>
        </mxCell>
        <mxCell id="DZo3CIwMZmZVj9F6stNv-50" value="Extend" style="text;html=1;align=center;verticalAlign=middle;resizable=0;points=[];autosize=1;strokeColor=none;fillColor=none;fontFamily=Times New Roman;fontSize=14;" vertex="1" parent="1">
          <mxGeometry x="1022" y="559" width="60" height="30" as="geometry" />
        </mxCell>
        <mxCell id="DZo3CIwMZmZVj9F6stNv-51" value="" style="endArrow=classic;html=1;rounded=0;strokeColor=#CC0000;" edge="1" parent="1">
          <mxGeometry width="50" height="50" relative="1" as="geometry">
            <mxPoint x="972" y="709" as="sourcePoint" />
            <mxPoint x="1022" y="659" as="targetPoint" />
          </mxGeometry>
        </mxCell>
        <mxCell id="DZo3CIwMZmZVj9F6stNv-52" value="Include" style="text;html=1;align=center;verticalAlign=middle;resizable=0;points=[];autosize=1;strokeColor=none;fillColor=none;fontFamily=Times New Roman;fontSize=14;" vertex="1" parent="1">
          <mxGeometry x="1017" y="689" width="70" height="30" as="geometry" />
        </mxCell>
        <mxCell id="DZo3CIwMZmZVj9F6stNv-57" value="" style="endArrow=classic;html=1;rounded=0;exitX=0.5;exitY=0;exitDx=0;exitDy=0;entryX=0.5;entryY=1;entryDx=0;entryDy=0;strokeColor=#3333FF;" edge="1" parent="1" source="DZo3CIwMZmZVj9F6stNv-3" target="DZo3CIwMZmZVj9F6stNv-2">
          <mxGeometry width="50" height="50" relative="1" as="geometry">
            <mxPoint x="515" y="300" as="sourcePoint" />
            <mxPoint x="565" y="250" as="targetPoint" />
          </mxGeometry>
        </mxCell>
        <mxCell id="DZo3CIwMZmZVj9F6stNv-58" value="" style="endArrow=classic;html=1;rounded=0;exitX=0;exitY=0.5;exitDx=0;exitDy=0;strokeColor=#3333FF;entryX=1;entryY=0.5;entryDx=0;entryDy=0;" edge="1" parent="1" source="DZo3CIwMZmZVj9F6stNv-11" target="DZo3CIwMZmZVj9F6stNv-10">
          <mxGeometry width="50" height="50" relative="1" as="geometry">
            <mxPoint x="510" y="1080" as="sourcePoint" />
            <mxPoint x="470" y="1010" as="targetPoint" />
            <Array as="points" />
          </mxGeometry>
        </mxCell>
        <mxCell id="DZo3CIwMZmZVj9F6stNv-59" value="" style="endArrow=classic;html=1;rounded=0;entryX=0;entryY=0;entryDx=0;entryDy=0;exitX=1;exitY=1;exitDx=0;exitDy=0;strokeColor=#3333FF;" edge="1" parent="1" source="DZo3CIwMZmZVj9F6stNv-11" target="DZo3CIwMZmZVj9F6stNv-13">
          <mxGeometry width="50" height="50" relative="1" as="geometry">
            <mxPoint x="510" y="1080" as="sourcePoint" />
            <mxPoint x="560" y="1030" as="targetPoint" />
          </mxGeometry>
        </mxCell>
        <mxCell id="DZo3CIwMZmZVj9F6stNv-60" value="" style="endArrow=classic;html=1;rounded=0;strokeColor=#3333FF;" edge="1" parent="1">
          <mxGeometry width="50" height="50" relative="1" as="geometry">
            <mxPoint x="972" y="584" as="sourcePoint" />
            <mxPoint x="1022" y="534" as="targetPoint" />
          </mxGeometry>
        </mxCell>
        <mxCell id="DZo3CIwMZmZVj9F6stNv-9" value="Cơ sở dữ liệu" style="ellipse;whiteSpace=wrap;html=1;fontFamily=Times New Roman;fontSize=14;" vertex="1" parent="1">
          <mxGeometry x="690" y="691" width="120" height="80" as="geometry" />
        </mxCell>
      </root>
    </mxGraphModel>
  </diagram>
</mxfile>
